<?xml version="1.0" encoding="UTF-8"?>
<svg id="Layer_2" data-name="Layer 2" xmlns="http://www.w3.org/2000/svg" viewBox="0 0 737.36 595.53">
  <defs>
    <style>
      .cls-1 {
        fill: #646969;
        stroke-width: 0px;
      }
    </style>
  </defs>
  <path class="cls-1" d="M160.4,544.99c2.59-5.14,4.86-10.46,6.75-15.9s3.56-10.79,4.36-16.33-.14-10.96-3.25-15.93c-2.88-4.61-6.18-8.93-8.98-13.61-5.77-9.65-10.74-19.8-15.71-29.88s-9.45-20.06-12.28-30.78c-6-22.73-1.12-45.76,4.91-67.94s13.17-42.47,22-62.84c4.44-10.25,9.24-20.33,14.4-30.24,2.56-4.91,5.2-9.77,7.93-14.59,2.25-3.96,4.47-8.21,8.02-11.18,1.41-1.18,3.16-2.13,5.02-2.36,1.34-.16,2.5-1.03,2.5-2.5,0-1.22-1.15-2.66-2.5-2.5-10.2,1.24-15.03,11.77-19.46,19.76-5.46,9.85-10.57,19.89-15.31,30.11-9.53,20.54-17.62,41.76-24.12,63.45-3.3,11.02-6.36,22.17-8.54,33.47s-3.51,23.62-2.16,35.45c1.28,11.23,4.81,21.93,9.25,32.28,4.48,10.44,9.72,20.59,14.98,30.66,2.64,5.05,5.39,10.05,8.41,14.88,2.85,4.56,6.57,8.79,8.87,13.67,2.44,5.19,1.1,10.85-.28,16.14-1.45,5.55-3.27,11.01-5.48,16.31-1.11,2.67-2.35,5.3-3.65,7.89-1.44,2.87,2.87,5.4,4.32,2.52h0Z"/>
  <path class="cls-1" d="M177.77,245.55c-47.62-42.21-87.16-93.24-116.19-149.87-8.29-16.17-15.69-32.77-22.19-49.74l-2.41,3.16c43.99,5.49,82.58,29.63,119.08,53.18,20.21,13.04,40.42,26.06,60.58,39.17,8.94,5.81,17.84,11.75,26.08,18.53,4.1,3.37,8.03,6.95,11.7,10.79,1.77,1.85,3.48,3.76,5.11,5.74,1.86,2.25,2.44,3.73,5.46,3.73,24.66.02,49.34-.79,73.99-1.18s49.33-.79,73.99-1.18c11.39-.18,22.56.38,33.05-4.72s20.04-11.24,30.22-16.5c20.91-10.81,42.35-20.61,63.74-30.41,41.2-18.87,84.33-37.16,130.11-40.09,5.5-.35,11.01-.46,16.52-.36l-2.16-3.76c-17.54,28.02-34.67,56.37-52.97,83.91-16.09,24.21-33.64,47.76-55.16,67.44-11.92,10.9-25.03,20.39-39.32,27.95-2.85,1.5-.32,5.82,2.52,4.32,52.62-27.81,85.79-79.74,116.46-128.73,10.93-17.45,21.85-34.91,32.78-52.36,1.03-1.64-.32-3.73-2.16-3.76-55.68-1-107.74,21.97-157.27,44.87-25.96,12-52.01,23.94-76.82,38.2-5.96,3.42-11.89,7.05-18.78,8.2-7.4,1.24-15.25.72-22.72.84-14.93.24-29.86.48-44.79.71-34.18.55-68.37,1.09-102.55,1.64l2.16,1.24c-10.08-13.09-22.95-23.37-36.53-32.63-15.37-10.49-31.19-20.34-46.81-30.44-29.55-19.1-58.84-39.46-91.15-53.69-17.38-7.66-35.5-13.28-54.38-15.63-1.53-.19-2.95,1.76-2.41,3.16,23.01,60.02,57.19,115.55,100.44,163.11,12.37,13.6,25.48,26.51,39.23,38.71,2.4,2.13,5.95-1.4,3.54-3.54h0Z"/>
  <path class="cls-1" d="M517.74,247.81c13.57,10.78,21.13,26.82,27.08,42.7,7.25,19.35,13.57,39.1,19.47,58.9,6.06,20.36,11.47,40.91,16.49,61.55s9.66,41.39,14.19,62.15c2.25,10.32,4.53,20.63,6.69,30.96,2.16,10.32,4.04,20.75,4.29,31.32.06,2.59.02,5.18-.12,7.77-.18,3.22,4.82,3.21,5,0,.59-10.7-.73-21.38-2.66-31.9-1.92-10.46-4.33-20.84-6.58-31.23-4.57-21.05-9.21-42.09-14.21-63.04s-10.32-41.62-16.3-62.21c-5.93-20.42-12.45-40.69-19.64-60.7-5.85-16.29-12.7-33.1-25.25-45.47-1.56-1.53-3.2-2.98-4.91-4.34-1.06-.84-2.5-1.03-3.54,0-.87.87-1.06,2.69,0,3.54h0Z"/>
  <path class="cls-1" d="M118.72,184.77c-9.84-13.74-17.73-28.86-23.36-44.8-5.63-15.93-9.1-32.62-10.16-49.48-.6-9.56-.44-19.16.49-28.7.13-1.35-1.24-2.5-2.5-2.5-1.46,0-2.37,1.15-2.5,2.5-1.66,17.2-.8,34.59,2.36,51.57s8.7,33.49,16.36,48.96c4.31,8.71,9.33,17.06,14.99,24.97.78,1.1,2.18,1.62,3.42.9,1.08-.63,1.69-2.32.9-3.42h0Z"/>
  <path class="cls-1" d="M597.02,218.01c10.51-14.2,19.11-29.73,25.74-46.1,6.6-16.3,11.14-33.41,13.5-50.83,1.33-9.86,1.99-19.78,1.91-29.73-.03-3.22-5.03-3.22-5,0,.14,17.3-1.93,34.55-6.14,51.33-4.19,16.71-10.42,32.88-18.6,48.04-4.65,8.62-9.91,16.89-15.73,24.76-.8,1.09-.18,2.79.9,3.42,1.27.74,2.61.19,3.42-.9h0Z"/>
  <g>
    <path class="cls-1" d="M232.29,287.32c-3.09.76-5.55,3.34-6.59,6.34s-.79,6.35.26,9.35c.54,1.55,1.31,3.06,2.49,4.22,1.63,1.6,3.9,2.37,6.15,2.73,4.37.7,9.39-.29,12.03-3.85.85-1.15,1.4-2.49,1.79-3.87.82-2.84.99-5.94,0-8.73-1.07-3.03-3.53-5.53-6.54-6.65s-6.51-.85-9.3.73l14.08-6.5c4.83,1.33,8.66,4.94,12.27,8.41,1.22,1.17,2.45,2.36,3.37,3.78,1.91,2.94,2.34,6.58,2.63,10.08.16,1.85.29,3.71.4,5.56.14,2.33.25,4.7-.27,6.98-.6,2.69-2.04,5.12-3.57,7.41-1.3,1.93-2.69,3.81-4.34,5.46-1.5,1.5-3.2,2.8-5.04,3.86-1.38.79-2.84,1.44-4.37,1.83-3.03.77-6.24.49-9.31-.13-1.63-.33-3.26-.77-4.71-1.57-1.88-1.04-3.37-2.63-4.83-4.19-1.94-2.08-3.9-4.19-5.24-6.7-1.21-2.26-1.87-4.77-2.3-7.3-.93-5.41-.84-11.05.75-16.31s4.73-10.11,9.18-13.32c4.55-3.28,10.38-4.73,15.93-3.96"/>
    <path class="cls-1" d="M231.63,284.91c-6.06,1.63-9.48,7.82-9.06,13.85.21,3.04,1.09,6.3,2.91,8.79s4.74,4.09,7.86,4.7c5.42,1.05,11.72.03,15.23-4.61,3.7-4.89,4.22-12.94.65-18.02-4.07-5.79-11.67-7.57-17.9-4.2-1.19.64-1.56,2.28-.9,3.42.74,1.26,2.19,1.46,3.42.9,4.69-2.17,9.39-4.33,14.08-6.5l-1.93.25c4.27,1.24,7.59,4.34,10.72,7.35,1.62,1.55,3.3,3.08,4.23,5.16.88,1.96,1.18,4.18,1.38,6.31.24,2.51.42,5.03.55,7.55s.09,5.05-.87,7.46c-.86,2.15-2.22,4.12-3.55,6s-2.87,3.64-4.65,5.13c-3.78,3.17-8.22,4.49-13.11,3.77-2.37-.35-4.85-.86-6.82-2.29-1.82-1.33-3.34-3.18-4.84-4.85s-2.96-3.55-3.85-5.68-1.41-4.7-1.69-7.09c-.58-4.87-.27-9.85,1.35-14.5,1.49-4.27,4.25-8.35,8-10.95,4.22-2.92,9.26-4.03,14.33-3.38,1.34.17,2.5-1.27,2.5-2.5,0-1.49-1.15-2.33-2.5-2.5-6.78-.88-13.71,1.27-18.93,5.65-4.94,4.14-8.15,10.28-9.35,16.57-1.33,7.01-.9,15.09,2.16,21.62,1.49,3.18,3.95,5.8,6.33,8.32s5.08,4.7,8.59,5.68c3.69,1.03,7.71,1.45,11.49.75,3.4-.63,6.52-2.45,9.21-4.56s4.99-5,6.96-7.93,3.65-6.13,4.11-9.71,0-7.4-.29-11.04-.66-7.1-2.2-10.35c-1.41-2.98-3.98-5.23-6.35-7.44s-5.02-4.48-8-5.96c-1.62-.81-3.75-1.95-5.53-1.16-.28.12-.56.26-.84.39l-4.86,2.24-8.38,3.87,2.52,4.32c3.52-1.9,7.82-1.18,10.52,1.76,2.88,3.14,2.78,8.2.99,11.88s-5.67,4.5-9.31,4.24c-1.84-.13-3.94-.62-5.41-1.79-1.67-1.32-2.42-3.58-2.84-5.58-.89-4.19.64-9.29,5.17-10.52,3.1-.84,1.79-5.66-1.33-4.82h0Z"/>
  </g>
  <g>
    <path class="cls-1" d="M427.54,288.44c-2.69,2.23-4.88,5.19-5.72,8.58s-.2,7.24,2.1,9.86c1.7,1.94,4.18,3.1,6.72,3.56s5.16.26,7.71-.17c2-.34,4.08-.88,5.51-2.32,2.03-2.04,2.16-5.24,2.1-8.12-.04-1.87-.11-3.76-.7-5.53-1.06-3.21-3.79-5.76-6.99-6.87s-6.79-.85-9.93.41l15.39-6.87c4.13.76,7.7,3.34,10.82,6.15,2.73,2.45,5.29,5.2,6.88,8.51,2.81,5.87,2.21,12.77.94,19.14-.47,2.32-1.02,4.65-2.05,6.79-1.06,2.21-2.61,4.16-4.37,5.86-4.4,4.24-10.4,6.98-16.51,6.8-.56-.02-1.12-.06-1.65-.21-.71-.2-1.34-.6-1.96-.99-4.98-3.12-10.14-6.41-13.19-11.44-.67-1.11-1.23-2.29-1.73-3.49-2.06-4.96-3.12-10.42-2.47-15.76s3.09-10.54,7.17-14.03c1.91-1.64,4.13-2.87,6.36-4.06,4.02-2.15,8.54-4.25,12.97-3.2"/>
    <path class="cls-1" d="M425.77,286.67c-4.58,3.88-7.55,9.56-6.6,15.65s6.07,9.94,11.94,10.69c3.21.41,6.65.11,9.77-.74,2.86-.78,5.29-2.45,6.5-5.22,1.12-2.56,1.14-5.42,1.04-8.17-.11-3.1-.65-6.17-2.51-8.73-4.17-5.73-11.79-7.23-18.24-4.74l1.93,4.57c5.13-2.29,10.26-4.58,15.39-6.87l-1.93.25c4.54.9,8.21,3.93,11.42,7.1s5.65,6.99,6.26,11.63-.16,9.6-1.26,14.17-3.54,8.25-7.28,11.09c-3.48,2.64-7.75,4.35-12.15,4.35-2.22,0-3.88-1.43-5.68-2.6s-3.55-2.38-5.17-3.78c-6.88-5.99-10.04-16.6-7.77-25.44,1.2-4.66,3.88-8.66,7.94-11.28,2.35-1.52,4.89-2.91,7.47-4,2.32-.99,4.91-1.7,7.43-1.16,3.14.67,4.48-4.15,1.33-4.82-3.93-.84-7.67.08-11.29,1.67-3.23,1.42-6.47,3.14-9.28,5.28-5.43,4.14-8.46,10.49-9.15,17.21-.38,3.72.05,7.55.99,11.16s2.23,6.97,4.25,9.89,4.37,5.04,7.06,7.07c1.29.97,2.63,1.88,3.99,2.76,1.44.93,2.9,2.01,4.53,2.6,3.06,1.12,7.18.34,10.19-.61,3.29-1.03,6.29-2.71,8.97-4.86s5.1-4.86,6.6-7.98,2.29-6.85,2.83-10.4c1.09-7.13.93-14.65-3.32-20.79-2.01-2.91-4.55-5.43-7.27-7.66s-5.69-4.19-9.1-5.13c-1.22-.34-2.17-.46-3.36.06-.49.22-.99.44-1.48.66l-5.33,2.38c-2.79,1.25-5.58,2.49-8.37,3.74-2.56,1.14-.72,5.6,1.93,4.57,3.93-1.52,8.6-1.51,11.79,1.59,1.42,1.38,2.24,3.09,2.5,5.06s.36,4.41.02,6.45c-.3,1.8-1.09,3.15-2.84,3.82-2.15.82-4.67,1.05-6.95,1.03-4.08-.04-8.21-1.8-9.3-6.07-1.2-4.69,1.65-9.02,5.08-11.93,1.03-.87.9-2.64,0-3.54-1.02-1.02-2.5-.88-3.54,0h0Z"/>
  </g>
  <g>
    <path class="cls-1" d="M323.59,345.8c4.51-.08,9.04.92,13.1,2.89,1.84.89,3.77,2.25,4.04,4.28.23,1.75-.9,3.41-2.27,4.51-2.1,1.68-4.81,2.46-7.5,2.63s-5.37-.21-8.03-.63c-3.94-.62-8.12-1.43-10.99-4.2-1.06-1.02-1.94-2.48-1.6-3.91.28-1.19,1.31-2.04,2.35-2.69,4.36-2.73,9.94-3.44,14.85-1.89"/>
    <path class="cls-1" d="M323.59,348.3c4.43-.04,9.33.85,13.13,3.26,1.21.77,2.01,1.76,1.06,3.08-1.1,1.53-3.12,2.29-4.88,2.69-4.18.95-9.03,0-13.14-.98-1.89-.45-3.82-1.05-5.38-2.25-.56-.43-1.42-1.1-1.56-1.84-.11-.57.39-.89.83-1.21,3.72-2.72,8.92-3.15,13.23-1.84,3.09.94,4.4-3.89,1.33-4.82-5.59-1.7-12.2-.99-17.08,2.34-2.75,1.88-4.22,4.81-2.66,8.02,1.29,2.64,4.02,4.32,6.65,5.39s5.35,1.49,8.09,1.91c3.34.5,6.67.86,10.03.31,5.23-.86,12.63-5.79,9.21-11.96-1.59-2.87-5.08-4.28-8-5.32-3.46-1.23-7.18-1.8-10.85-1.76-3.22.03-3.22,5.03,0,5h0Z"/>
  </g>
  <path class="cls-1" d="M339.18,400c4.21.49,8.42.98,12.63,1.47,3.49.41,7.24.6,10.47,2.1,6.22,2.89,9.73,9.21,11.52,15.56,2,7.1,2.99,15.1.86,22.27-1.93,6.49-6.55,11.21-12.86,13.58-7.15,2.69-15.06,3.03-22.58,2.05-7.01-.92-14.3-2.82-20.2-6.85-2.89-1.97-5.24-4.6-7.21-7.48s-3.92-6.19-5.25-9.56c-2.41-6.07-3.17-12.78-.43-18.88,2.36-5.26,6.77-9.8,12.25-11.77,3.55-1.28,7.31-1.66,11.05-1.88s7.71-.49,11.53-.11c1.78.18,3.52.6,5.21,1.2,1.27.46,2.74-.51,3.08-1.75.38-1.39-.47-2.62-1.75-3.08-4.03-1.44-8.37-1.65-12.61-1.52-4.25.13-8.55.31-12.74,1.01-7.42,1.25-13.8,5.25-18.09,11.43s-5.55,13.75-4.02,21.07c.83,3.97,2.45,7.79,4.39,11.34s4.2,6.98,6.95,9.93c5.45,5.84,13.1,8.95,20.75,10.67,8.69,1.96,17.84,2.42,26.55.35,7.54-1.79,14.6-5.82,18.45-12.76,4.18-7.54,4.22-16.36,2.81-24.65-1.33-7.81-4.12-15.92-10.29-21.25-2.98-2.57-6.45-4.27-10.31-5.02-4.35-.84-8.82-1.16-13.22-1.67l-6.94-.81c-1.34-.16-2.5,1.26-2.5,2.5,0,1.48,1.15,2.34,2.5,2.5h0Z"/>
  <g>
    <path class="cls-1" d="M498.24,363.48c-5.59-.06-11.42-.06-16.41,2.46-1.82.92-3.46,2.15-5.05,3.42-5.89,4.68-11.51,10.43-13.2,17.76-.98,4.26-.54,8.71.15,13.02.33,2.08.73,4.16,1.45,6.14,1.65,4.56,4.93,8.38,8.74,11.38,7.1,5.59,16.23,8.55,25.26,8.21,3.11-.12,6.19-.61,9.23-1.26,6.91-1.49,13.86-3.97,18.97-8.85,3.56-3.41,6.02-7.79,8.24-12.19.9-1.78,1.78-3.62,2.01-5.6.26-2.23-.32-4.47-.9-6.64-.86-3.21-1.73-6.47-3.48-9.29-1.04-1.67-2.35-3.15-3.66-4.61-2.21-2.47-4.42-4.95-7.01-7.02-7.14-5.73-16.99-7.91-25.88-5.74"/>
    <path class="cls-1" d="M498.24,360.98c-3.89-.04-7.8-.02-11.64.74s-7.16,2.46-10.23,4.81c-5.6,4.3-11.05,9.36-13.88,15.97-1.57,3.67-2.14,7.59-1.95,11.58s.75,8.37,2,12.23c2.31,7.08,7.94,12.62,14.23,16.34,6.41,3.79,13.91,5.82,21.36,5.75,7.64-.07,15.73-1.96,22.64-5.21,3.31-1.56,6.42-3.65,8.98-6.27,2.73-2.8,4.86-6.14,6.71-9.57s3.9-7.05,3.71-11.05c-.1-2.21-.69-4.35-1.27-6.47-.49-1.82-1.01-3.63-1.71-5.37-1.54-3.82-4.03-6.78-6.75-9.81s-5.4-5.74-8.7-7.93c-5.91-3.92-13.28-5.83-20.35-5.3-1.81.14-3.61.41-5.37.83-3.13.74-1.8,5.56,1.33,4.82,5.9-1.4,12.36-.81,17.88,1.74,2.96,1.37,5.58,3.19,7.94,5.44,2.52,2.42,5.1,5.08,7.15,7.91s2.91,5.81,3.77,8.99c.47,1.75,1.05,3.55,1.1,5.38.04,1.64-.46,3.15-1.16,4.62-2.87,6.05-6.36,12.07-12.15,15.74s-12.28,5.27-18.73,6.14-13.44.1-19.6-2.54c-5.6-2.4-11.03-6.27-14.28-11.51-1.82-2.92-2.59-6.15-3.13-9.52s-.99-7.25-.34-10.78c1.26-6.93,6.28-12.23,11.51-16.57,2.9-2.41,5.87-4.47,9.58-5.36s7.56-.82,11.35-.79c3.22.03,3.22-4.97,0-5h0Z"/>
  </g>
  <g>
    <path class="cls-1" d="M174.63,363.22c-7.45.38-14.86,2.85-20.7,7.49s-9.99,11.51-10.81,18.92,1.87,15.25,7.45,20.19c.89.79,1.85,1.5,2.84,2.17,7.83,5.31,17.58,7.65,26.99,6.72,1.81-.18,3.6-.47,5.39-.8,2.43-.44,4.87-.95,7.12-1.97,6.04-2.73,9.87-8.68,13.36-14.31,1.14-1.84,2.3-3.73,2.7-5.86.28-1.48.17-3.01.01-4.52-.34-3.32-.91-6.62-1.7-9.86-.38-1.57-.82-3.15-1.66-4.53-.65-1.06-1.51-1.98-2.4-2.84-7.7-7.39-18.59-11.33-29.23-10.58"/>
    <path class="cls-1" d="M174.63,360.72c-13.67.77-26.69,8.07-32.05,21.08-2.44,5.92-2.79,12.68-.8,18.79,2.14,6.56,6.61,11.47,12.51,14.92s12.83,5.46,19.76,5.84c3.56.2,7.1-.13,10.61-.71s7.28-1.3,10.55-3.05c5.59-3,9.32-8.45,12.6-13.7,1.93-3.09,3.76-6.16,3.83-9.91s-.73-7.71-1.52-11.39c-.46-2.12-.95-4.26-1.92-6.21-.84-1.69-2.15-3.11-3.51-4.39-2.71-2.54-5.79-4.73-9.09-6.43-6.64-3.42-14.16-5.09-21.62-4.61-1.35.09-2.5,1.09-2.5,2.5,0,1.29,1.15,2.59,2.5,2.5,5.75-.37,11.53.57,16.83,2.84,2.62,1.13,5.12,2.58,7.42,4.27,2.14,1.57,4.66,3.55,5.74,6.04,1.26,2.9,1.7,6.4,2.17,9.5s.96,6.25-.51,9.13c-1.31,2.58-2.98,5.05-4.63,7.43-1.55,2.23-3.28,4.34-5.35,6.1-2.27,1.93-4.93,3.02-7.8,3.68s-6.07,1.21-9.14,1.39c-5.98.35-12.04-.64-17.56-2.97-5.34-2.25-10.34-5.63-13.13-10.83-2.5-4.65-3.17-10.22-1.95-15.34,3.12-13.05,15.74-20.77,28.56-21.49,3.2-.18,3.22-5.18,0-5h0Z"/>
  </g>
</svg>